<svg version="1.1" xmlns="http://www.w3.org/2000/svg" style="display: block;" viewBox="0 0 1024 1024" width="256" height="256" preserveAspectRatio="none">
<defs>
	<linearGradient id="Gradient1" gradientUnits="userSpaceOnUse" x1="658.701" y1="883.516" x2="655.395" y2="878.727">
		<stop class="stop0" offset="0" stop-opacity="0.301961" stop-color="rgb(0,0,0)"/>
		<stop class="stop1" offset="1" stop-opacity="0.34902" stop-color="rgb(0,0,0)"/>
	</linearGradient>
	<linearGradient id="Gradient2" gradientUnits="userSpaceOnUse" x1="613.68" y1="883.209" x2="616.266" y2="887.175">
		<stop class="stop0" offset="0" stop-opacity="0.454902" stop-color="rgb(0,0,0)"/>
		<stop class="stop1" offset="1" stop-opacity="0.513725" stop-color="rgb(0,0,0)"/>
	</linearGradient>
	<linearGradient id="Gradient3" gradientUnits="userSpaceOnUse" x1="600.956" y1="887.147" x2="605.385" y2="892.114">
		<stop class="stop0" offset="0" stop-opacity="0.521569" stop-color="rgb(0,0,0)"/>
		<stop class="stop1" offset="1" stop-opacity="0.556863" stop-color="rgb(0,0,0)"/>
	</linearGradient>
	<linearGradient id="Gradient4" gradientUnits="userSpaceOnUse" x1="581.49" y1="891.146" x2="590.1" y2="895.64">
		<stop class="stop0" offset="0" stop-opacity="0.501961" stop-color="rgb(0,0,0)"/>
		<stop class="stop1" offset="1" stop-opacity="0.560784" stop-color="rgb(0,0,0)"/>
	</linearGradient>
	<linearGradient id="Gradient5" gradientUnits="userSpaceOnUse" x1="391.864" y1="886.661" x2="419.54" y2="896.164">
		<stop class="stop0" offset="0" stop-opacity="0.372549" stop-color="rgb(0,0,0)"/>
		<stop class="stop1" offset="1" stop-opacity="0.533333" stop-color="rgb(0,0,0)"/>
	</linearGradient>
	<linearGradient id="Gradient6" gradientUnits="userSpaceOnUse" x1="419.07" y1="899.813" x2="456.409" y2="889.333">
		<stop class="stop0" offset="0" stop-opacity="0.482353" stop-color="rgb(0,0,0)"/>
		<stop class="stop1" offset="1" stop-opacity="0.52549" stop-color="rgb(0,0,0)"/>
	</linearGradient>
	<linearGradient id="Gradient7" gradientUnits="userSpaceOnUse" x1="676.536" y1="872.459" x2="672.986" y2="867.46">
		<stop class="stop0" offset="0" stop-opacity="0.298039" stop-color="rgb(0,0,0)"/>
		<stop class="stop1" offset="1" stop-opacity="0.345098" stop-color="rgb(0,0,0)"/>
	</linearGradient>
	<linearGradient id="Gradient8" gradientUnits="userSpaceOnUse" x1="515.038" y1="911.549" x2="515.692" y2="893.778">
		<stop class="stop0" offset="0" stop-opacity="0.407843" stop-color="rgb(0,0,0)"/>
		<stop class="stop1" offset="1" stop-opacity="0.509804" stop-color="rgb(0,0,0)"/>
	</linearGradient>
	<linearGradient id="Gradient9" gradientUnits="userSpaceOnUse" x1="686.53" y1="630.615" x2="673.641" y2="573.02">
		<stop class="stop0" offset="0" stop-opacity="1" stop-color="rgb(159,156,157)"/>
		<stop class="stop1" offset="1" stop-opacity="1" stop-color="rgb(199,197,199)"/>
	</linearGradient>
	<linearGradient id="Gradient10" gradientUnits="userSpaceOnUse" x1="745.747" y1="803.488" x2="270.52" y2="161.827">
		<stop class="stop0" offset="0" stop-opacity="1" stop-color="rgb(212,212,212)"/>
		<stop class="stop1" offset="1" stop-opacity="1" stop-color="rgb(255,255,255)"/>
	</linearGradient>
</defs>
<path transform="translate(0,0)" fill="rgb(0,0,0)" fill-opacity="0.00784314" d="M 0 0 L 1024 0 L 1024 1024 L 0 1024 L 0 0 z M 542.67 894.739 C 520.986 896.73 504.996 896.05 483.499 894.909 C 467.517 892.409 450.893 889.497 435.12 887.119 C 425.258 884.473 415.428 881.706 405.634 878.819 C 402.051 876.934 383.625 870.718 376.872 867.639 L 368.742 864.156 C 353.912 857.224 341.962 849.499 327.945 841.671 C 317.066 834.445 307.378 826.336 296.751 818.863 L 294.476 819.693 C 291.053 817.615 285.416 812.873 282.437 813.023 C 278.364 814.537 278.058 813.891 275.958 816.843 L 277.036 818.956 L 278.95 819.33 L 279.761 815.801 L 281.045 815.791 L 282.843 817.676 C 281.573 818.842 281.004 819.405 280.453 821.056 C 282.341 823.476 281.372 822.873 284.032 823.639 C 284.803 821.727 284.481 822.112 283.922 819.656 C 285.673 819.615 291.045 824.225 292.95 825.664 C 293.188 828.327 293.006 828.928 292.432 831.555 L 293.529 832.797 C 295.355 831.402 295.29 830.685 295.921 828.316 C 297.504 831.122 297.549 831.501 297.349 834.724 C 301.482 835.795 304.279 832.573 307.963 838.11 C 308.987 844.872 310.477 843.954 311.532 847.362 C 315.38 859.79 320.329 866.131 330.905 873.986 C 338.605 879.704 354.434 889.238 363.839 891.511 L 364.251 892.811 L 362.942 893.477 C 365.348 894.635 376.524 899.418 378.694 900.052 L 378.945 900.796 C 381.528 904.165 424.453 918.065 430.29 918.345 C 435.53 921.977 445.813 919.895 449.18 921.316 C 461.958 926.712 473.662 925.84 487.522 926.725 C 481.478 930.466 469.725 928.619 465.354 933.93 L 465.653 934.677 C 472.675 935.377 473.695 930.774 476.776 932.041 L 474.28 934.231 C 475.252 934.453 499.343 934.436 500.786 934.143 L 501.575 933.132 C 507.12 935.371 531.953 936.316 535.769 932.206 L 532.279 929.797 L 530 928.744 L 528.59 926.925 C 532.825 926.168 534.748 927.463 539.17 927.072 C 539.42 926.833 539.675 926.601 539.935 926.373 C 547.952 919.401 569.037 924.174 573.259 921.573 L 571.753 920.333 C 577.601 919.292 580.014 918.826 585.743 916.733 L 585.124 916.688 C 591.518 915.003 606.719 912.474 610.113 908.119 C 609.432 905.873 609.427 908.577 606.16 905 L 606.74 904.4 C 618.147 909.703 615.216 903.26 621.561 900.067 C 628.926 896.36 649.577 892.207 654.163 885.33 C 659.192 885.872 660.091 884.009 663.858 880.769 C 666.11 880.85 684.232 868.43 688.318 866.975 C 688.369 866.957 689.228 861.587 689.439 861.321 C 693.228 856.538 700.082 855.392 704.122 850.879 C 703.899 851.13 705.255 847.011 705.672 846.132 C 706.937 847.026 708.12 847.73 709.438 848.526 C 711.933 847.844 715.327 843.484 717.29 841.32 L 719.174 840.326 L 717.631 838.103 C 718.836 836.37 723.727 834.587 726.047 833.524 L 725.107 834.614 C 731.417 830.087 735.269 825.411 741.579 820.349 L 740.873 821.308 C 749.759 816.018 749.353 817.556 753.543 808.674 C 756.383 808.043 744.394 812.834 745.999 811.67 C 735.324 819.413 708.218 837.465 698.249 843.163 L 697.833 841.821 C 687.397 848.109 677.814 853.899 667.009 859.547 C 664.461 860.642 662.342 861.517 659.908 862.902 C 643.186 870.565 630.997 875.484 613.225 881.037 L 612.053 881.714 C 604.306 883.593 592.437 886.068 585.136 888.348 C 571.071 891.043 556.904 893.175 542.67 894.739 z"/>
<path transform="translate(0,0)" fill="url(#Gradient10)" d="M 296.751 818.863 C 202.981 736.619 163.376 629.093 163.116 506.09 C 161.619 380.988 208.371 249.814 290.213 155.285 C 340.11 97.9113 419.55 46.7754 497.237 43.9466 C 719.42 35.856 853.824 283.558 862.986 478.451 C 869.621 619.579 820.213 761.964 697.833 841.821 C 687.397 848.109 677.814 853.899 667.009 859.547 C 664.461 860.642 662.342 861.517 659.908 862.902 C 643.186 870.565 630.997 875.484 613.225 881.037 L 612.053 881.714 C 604.306 883.593 592.437 886.068 585.136 888.348 C 571.071 891.043 556.904 893.175 542.67 894.739 C 520.986 896.73 504.996 896.05 483.499 894.909 C 467.517 892.409 450.893 889.497 435.12 887.119 C 425.258 884.473 415.428 881.706 405.634 878.819 C 402.051 876.934 383.625 870.718 376.872 867.639 L 368.742 864.156 C 353.912 857.224 341.962 849.499 327.945 841.671 C 317.066 834.445 307.378 826.336 296.751 818.863 z"/>
<path transform="translate(0,0)" fill="url(#Gradient9)" d="M 506.192 649.696 C 532.703 646.302 562.203 646.95 588.497 644.195 C 670.526 635.602 787.996 611.849 841.55 542.949 C 845.071 538.419 849.46 531.49 852.86 527.592 C 841.601 563.27 804.068 585.753 772.164 601.454 C 702.545 635.717 621.266 649.139 544.201 651.682 C 536.229 651.945 509.366 654.666 503.223 651.41 C 495.701 650.618 485.637 650.374 477.905 649.959 L 476.476 647.15 C 477.76 631.542 476.949 605.44 476.932 589.104 L 505.803 590.179 C 507.404 603.967 505.966 634.391 506.192 649.696 z"/>
<path transform="translate(0,0)" fill="rgb(69,68,68)" d="M 476.932 589.104 L 505.803 590.179 C 504.787 599.186 506.113 647.898 504.165 651.027 L 503.223 651.41 C 495.701 650.618 485.637 650.374 477.905 649.959 L 476.476 647.15 C 477.76 631.542 476.949 605.44 476.932 589.104 z"/>
<path transform="translate(0,0)" fill="rgb(69,68,68)" d="M 503.948 472.204 L 552.958 472.335 C 552.943 477.949 552.688 483.936 552.541 489.581 C 541.871 489.412 531.2 489.326 520.529 489.324 C 520.085 495.489 519.385 501.883 518.785 508.057 C 564.543 502.236 570.551 548.698 542.637 565.5 C 528.36 572.203 513.1 570.746 498.814 565.342 C 498.829 559.192 498.785 554.263 498.321 548.117 C 508.19 551.383 528.668 557.493 534.504 549.695 C 548.724 530.696 530.726 520.523 512.488 524.674 C 508.568 525.566 504.493 524.105 502.279 522.026 C 499.31 516.436 503.03 480.653 503.948 472.204 z"/>
<path transform="translate(0,0)" fill="rgb(69,68,68)" d="M 446.27 471.131 C 453.546 470.63 464.034 472.187 469.318 477.695 C 493.389 502.789 460.502 533.653 443.619 551.851 L 480.209 551.703 C 480.269 557.289 480.143 563.14 480.106 568.75 L 442.75 568.85 L 421.99 568.794 L 422.15 554.355 C 433.846 540.327 453.786 520.43 458.954 503.329 C 459.722 500.174 460.121 495.438 457.912 492.763 C 449.374 482.426 438.581 492.24 431.611 497.844 C 428.765 493.264 424.821 489.108 421.229 485.049 C 429.618 477.189 434.99 473.706 446.27 471.131 z"/>
<path transform="translate(0,0)" fill="rgb(69,68,68)" d="M 496.009 672.762 C 511.787 688.585 531.296 709.358 547.625 723.907 L 496.5 724.13 L 444.062 724.026 C 454.433 715.956 485.274 683.612 496.009 672.762 z"/>
<path transform="translate(0,0)" fill="rgb(69,68,68)" d="M 305.12 559.864 C 313.46 562.647 321.623 565.538 330.23 567.387 C 330.096 581.871 329.085 613.641 330.369 626.564 L 329.711 628.473 C 322.349 625.664 313.281 623.456 305.366 620.656 L 305.118 617.434 C 305.21 599.32 305.857 577.742 305.12 559.864 z"/>
<path transform="translate(0,0)" fill="rgb(106,105,105)" d="M 177.172 477.774 C 181.325 481.649 191.653 495.826 195.835 500.999 C 196.621 516.656 194.377 549.237 197.185 562.785 C 169.362 535.719 178.485 515.35 177.172 477.774 z"/>
<path transform="translate(0,0)" fill="rgb(69,68,68)" d="M 349.852 602.794 L 349.882 591.894 C 355.595 593.236 361.317 594.539 367.048 595.804 C 366.806 608.987 366.799 622.173 367.025 635.356 L 364.333 636.544 C 359.566 634.889 354.078 633.831 349.112 632.729 C 343.244 632.63 335.117 630.823 329.711 628.473 L 330.369 626.564 C 338.942 626.527 341.381 626.848 348.98 630.743 C 349.075 621.258 349.109 612.276 349.852 602.794 z"/>
<path transform="translate(0,0)" fill="rgb(175,174,174)" d="M 349.852 602.794 C 350.105 610.144 350.617 625.767 349.112 632.729 C 343.244 632.63 335.117 630.823 329.711 628.473 L 330.369 626.564 C 338.942 626.527 341.381 626.848 348.98 630.743 C 349.075 621.258 349.109 612.276 349.852 602.794 z"/>
<path transform="translate(0,0)" fill="rgb(69,68,68)" d="M 434.928 606.809 L 453.942 608.159 C 453.862 620.89 453.536 634.331 454.223 646.993 L 453.044 649.154 L 435.069 647.447 L 435.23 645.083 C 434.509 632.779 434.862 619.218 434.928 606.809 z"/>
<path transform="translate(0,0)" fill="rgb(69,68,68)" d="M 391.27 600.625 C 397.278 601.381 403.415 602.087 409.4 602.921 C 409.349 615.837 409.528 629.529 409.194 642.379 L 409.891 644.508 C 404.396 642.831 398.888 642.433 393.183 641.796 C 391.951 640.893 391.855 640.496 390.96 639.234 C 391.236 626.367 391.339 613.495 391.27 600.625 z"/>
<path transform="translate(0,0)" fill="rgb(69,68,68)" d="M 273.133 568.67 L 289.468 573.488 C 289.743 586.818 289.817 600.152 289.689 613.484 L 287.243 614.282 C 285.079 613.153 276.66 610.213 273.939 609.189 L 272.81 606.146 C 273.223 595.984 273.841 578.772 273.133 568.67 z"/>
<path transform="translate(0,0)" fill="rgb(69,68,68)" d="M 240.741 552.005 L 255.796 559.642 C 255.762 572.474 255.481 586.416 255.883 599.146 L 253.898 600.059 C 251.314 597.969 244.117 594.473 241.006 593.297 L 239.953 590.387 L 240.741 552.005 z"/>
<path transform="translate(0,0)" fill="rgb(106,105,105)" d="M 208.639 531.896 C 213.538 535.135 218.384 538.03 222.482 542.239 C 222.351 551.661 221.579 572.478 222.901 580.496 L 220.712 581.137 C 216.242 578.044 211.861 574.824 207.575 571.481 C 208.524 560.255 208.066 544.098 208.639 531.896 z"/>
<path transform="translate(0,0)" fill="rgb(175,174,174)" d="M 367.025 635.356 C 374.191 635.804 384.164 636.849 390.96 639.234 C 391.855 640.496 391.951 640.893 393.183 641.796 C 383.314 641.97 373.508 640.186 364.333 636.544 L 367.025 635.356 z"/>
<path transform="translate(0,0)" fill="rgb(175,174,174)" d="M 222.901 580.496 C 231.681 583.706 232.482 584.327 239.953 590.387 L 241.006 593.297 C 233.123 591.349 226.328 586.893 220.712 581.137 L 222.901 580.496 z"/>
<path transform="translate(0,0)" fill="rgb(175,174,174)" d="M 255.883 599.146 C 260.341 600.554 270.535 605.715 272.81 606.146 L 273.939 609.189 C 266.531 609.069 259.429 604.611 253.898 600.059 L 255.883 599.146 z"/>
<path transform="translate(0,0)" fill="rgb(142,138,141)" d="M 454.223 646.993 C 462.208 646.736 468.49 646.807 476.476 647.15 L 477.905 649.959 C 471.04 650.193 459.578 650.153 453.044 649.154 L 454.223 646.993 z"/>
<path transform="translate(0,0)" fill="rgb(142,138,141)" d="M 409.194 642.379 C 417.754 642.561 426.944 642.747 435.23 645.083 L 435.069 647.447 C 426.658 646.636 418.263 645.656 409.891 644.508 L 409.194 642.379 z"/>
<path transform="translate(0,0)" fill="rgb(175,174,174)" d="M 289.689 613.484 C 299.136 614.211 297.08 614.879 305.118 617.434 L 305.366 620.656 C 298.928 620.275 292.567 617.861 287.243 614.282 L 289.689 613.484 z"/>
<path transform="translate(0,0)" fill="rgb(0,0,0)" fill-opacity="0.356863" d="M 648.149 871.91 C 651.435 872.092 651.832 871.889 654.785 870.391 L 655.874 870.924 L 653.114 874.934 L 653.509 875.833 C 657.776 874.107 659.951 871.661 662.843 871.166 L 658.141 876.438 C 653.383 878.03 652.701 879.581 654.163 885.33 C 649.577 892.207 628.926 896.36 621.561 900.067 C 615.216 903.26 618.147 909.703 606.74 904.4 L 611.683 901.717 L 611.049 900.539 C 605.681 901.187 604.288 901.535 599.224 903.434 L 598.646 904.339 C 601.507 904.664 604.435 904.087 606.16 905 C 609.427 908.577 609.432 905.873 610.113 908.119 C 606.719 912.474 591.518 915.003 585.124 916.688 L 585.743 916.733 C 580.014 918.826 577.601 919.292 571.753 920.333 C 569.762 904.844 563.552 909.279 549.898 912.238 C 516.726 919.427 483.925 917.417 450.728 911.598 C 443.568 910.343 439.785 905.785 433.463 904.703 C 431.784 908.309 431.01 914.267 430.29 918.345 C 424.453 918.065 381.528 904.165 378.945 900.796 C 392.654 897.417 394.283 897.938 408.284 896.857 L 409.475 895.019 C 422.001 896.102 436.245 901.734 449.132 901.956 C 451.494 901.996 455.407 900.027 457.937 899.664 C 452.238 903.65 451.298 903.311 444.814 905.282 C 443.109 905.102 441.888 904.718 440.508 905.614 C 443.855 907.059 444.826 907.442 448.406 908.199 C 463.415 912.438 525.799 915.089 538.749 907.559 L 535.326 905.683 C 538.798 904.447 538.933 905.813 540.977 903.547 L 537.643 902.85 L 538.313 902.086 C 542.36 901.314 542.895 901.34 546.937 902.161 C 546.961 904.973 544.567 902.054 542.11 905.43 C 547.771 910.154 573.671 902.691 574.955 899.967 C 572.054 899.922 569.154 899.841 566.255 899.724 C 569.273 897.219 572.737 898.304 577.216 896.365 C 575.591 895.168 547.221 894.859 542.67 894.739 C 556.904 893.175 571.071 891.043 585.136 888.348 C 581.512 891.889 580.869 892.54 578.858 897.135 L 579.072 898.368 C 581.291 898.283 581.777 897.757 583.754 896.563 C 588.88 898.362 597.573 896.392 601.521 892.776 C 616.361 895.926 631.709 885.226 645.058 880.549 C 647.113 879.829 647.585 879.809 649.624 878.717 L 649.772 873.086 L 648.149 871.91 z M 612.604 897.192 L 612.32 895.242 C 609.42 894.803 608.654 894.924 605.722 895.247 L 606.494 897.869 C 608.7 898.704 610.245 897.893 612.604 897.192 z"/>
<path transform="translate(0,0)" fill="rgb(0,0,0)" fill-opacity="0.376471" d="M 605.722 895.247 C 608.654 894.924 609.42 894.803 612.32 895.242 L 612.604 897.192 C 610.245 897.893 608.7 898.704 606.494 897.869 L 605.722 895.247 z"/>
<path transform="translate(0,0)" fill="rgb(0,0,0)" fill-opacity="0.384314" d="M 363.839 891.511 C 354.434 889.238 338.605 879.704 330.905 873.986 C 320.329 866.131 315.38 859.79 311.532 847.362 C 310.477 843.954 308.987 844.872 307.963 838.11 C 316.113 841.86 314.606 841.495 320.6 846.803 C 323.455 845.395 325.093 843.572 327.945 841.671 C 341.962 849.499 353.912 857.224 368.742 864.156 C 365.063 870.51 362.438 866.387 362.357 869.52 L 362.991 869.612 C 364.315 869.823 365.635 870.054 366.951 870.306 C 373.866 871.589 373.823 875.857 377.302 874.009 L 377.235 873.415 C 377.069 871.805 376.812 869.211 376.872 867.639 C 383.625 870.718 402.051 876.934 405.634 878.819 C 408.299 883.424 406.858 881.949 411.649 884.589 C 405.918 888.109 407.964 886.888 401.506 888.375 L 397.88 887.219 C 395.583 892.379 401.295 890.097 395.354 893.17 C 384.999 898.525 373.778 891.178 363.839 891.511 z"/>
<path transform="translate(0,0)" fill="rgb(0,0,0)" fill-opacity="0.14902" d="M 430.29 918.345 C 431.01 914.267 431.784 908.309 433.463 904.703 C 439.785 905.785 443.568 910.343 450.728 911.598 C 483.925 917.417 516.726 919.427 549.898 912.238 C 563.552 909.279 569.762 904.844 571.753 920.333 L 573.259 921.573 C 569.037 924.174 547.952 919.401 539.935 926.373 C 539.675 926.601 539.42 926.833 539.17 927.072 C 534.748 927.463 532.825 926.168 528.59 926.925 L 530 928.744 C 527.037 928.471 524.973 927.621 522.242 926.527 C 525.861 930.229 526.667 930.761 531.555 932.459 L 532.048 931.83 L 531.423 930.396 L 532.279 929.797 L 535.769 932.206 C 531.953 936.316 507.12 935.371 501.575 933.132 C 505.624 933.058 511.847 933.671 514.721 931.824 C 508.176 930.173 506.98 929.175 501.575 933.132 L 500.786 934.143 C 499.343 934.436 475.252 934.453 474.28 934.231 L 476.776 932.041 C 473.695 930.774 472.675 935.377 465.653 934.677 L 465.354 933.93 C 469.725 928.619 481.478 930.466 487.522 926.725 C 473.662 925.84 461.958 926.712 449.18 921.316 C 445.813 919.895 435.53 921.977 430.29 918.345 z"/>
<path transform="translate(0,0)" fill="url(#Gradient8)" d="M 483.499 894.909 C 504.996 896.05 520.986 896.73 542.67 894.739 C 547.221 894.859 575.591 895.168 577.216 896.365 C 572.737 898.304 569.273 897.219 566.255 899.724 C 569.154 899.841 572.054 899.922 574.955 899.967 C 573.671 902.691 547.771 910.154 542.11 905.43 C 544.567 902.054 546.961 904.973 546.937 902.161 C 542.895 901.34 542.36 901.314 538.313 902.086 L 537.643 902.85 L 540.977 903.547 C 538.933 905.813 538.798 904.447 535.326 905.683 L 538.749 907.559 C 525.799 915.089 463.415 912.438 448.406 908.199 C 452.264 907.452 461.216 907.549 465.496 907.479 C 458.156 906.422 452.227 905.504 444.814 905.282 C 451.298 903.311 452.238 903.65 457.937 899.664 L 458.652 898.614 C 458.183 897.718 457.691 896.989 456.988 896.262 C 459.781 894.317 477.038 895.733 483.499 894.909 z"/>
<path transform="translate(0,0)" fill="url(#Gradient7)" d="M 667.009 859.547 C 678.156 860.365 706.02 838.16 715.651 839.071 L 717.29 841.32 C 715.327 843.484 711.933 847.844 709.438 848.526 C 708.12 847.73 706.937 847.026 705.672 846.132 C 705.255 847.011 703.899 851.13 704.122 850.879 C 700.082 855.392 693.228 856.538 689.439 861.321 C 689.228 861.587 688.369 866.957 688.318 866.975 C 684.232 868.43 666.11 880.85 663.858 880.769 C 663.274 879.371 660.193 878.349 658.141 876.438 L 662.843 871.166 C 666.291 869.342 670.916 867.688 673.406 865.29 L 672.77 863.42 C 668.345 862.227 667.383 867.162 659.908 862.902 C 662.342 861.517 664.461 860.642 667.009 859.547 z"/>
<path transform="translate(0,0)" fill="url(#Gradient6)" d="M 435.12 887.119 C 450.893 889.497 467.517 892.409 483.499 894.909 C 477.038 895.733 459.781 894.317 456.988 896.262 C 457.691 896.989 458.183 897.718 458.652 898.614 L 457.937 899.664 C 455.407 900.027 451.494 901.996 449.132 901.956 C 436.245 901.734 422.001 896.102 409.475 895.019 C 424.821 892.578 418.379 887.304 435.12 887.119 z"/>
<path transform="translate(0,0)" fill="rgb(0,0,0)" fill-opacity="0.478431" d="M 659.908 862.902 C 667.383 867.162 668.345 862.227 672.77 863.42 L 673.406 865.29 C 670.916 867.688 666.291 869.342 662.843 871.166 C 659.951 871.661 657.776 874.107 653.509 875.833 L 653.114 874.934 L 655.874 870.924 L 654.785 870.391 C 651.832 871.889 651.435 872.092 648.149 871.91 C 643.913 872.596 644.396 871.889 641.533 874.324 L 641.283 876.181 C 644.151 879.618 645.261 878.789 649.624 878.717 C 647.585 879.809 647.113 879.829 645.058 880.549 C 631.709 885.226 616.361 895.926 601.521 892.776 L 604.62 892.247 C 609.676 892.11 619.135 888.684 623.014 885.482 L 623.029 883.897 C 620.229 882.041 617.021 882.421 613.589 882.392 L 613.225 881.037 C 630.997 875.484 643.186 870.565 659.908 862.902 z"/>
<path transform="translate(0,0)" fill="url(#Gradient5)" d="M 405.634 878.819 C 415.428 881.706 425.258 884.473 435.12 887.119 C 418.379 887.304 424.821 892.578 409.475 895.019 L 408.284 896.857 C 394.283 897.938 392.654 897.417 378.945 900.796 L 378.694 900.052 C 376.524 899.418 365.348 894.635 362.942 893.477 L 364.251 892.811 L 363.839 891.511 C 373.778 891.178 384.999 898.525 395.354 893.17 C 401.295 890.097 395.583 892.379 397.88 887.219 L 401.506 888.375 C 407.964 886.888 405.918 888.109 411.649 884.589 C 406.858 881.949 408.299 883.424 405.634 878.819 z"/>
<path transform="translate(0,0)" fill="rgb(34,32,32)" fill-opacity="0.258824" d="M 307.963 838.11 C 304.279 832.573 301.482 835.795 297.349 834.724 C 297.549 831.501 297.504 831.122 295.921 828.316 C 295.29 830.685 295.355 831.402 293.529 832.797 L 292.432 831.555 C 293.006 828.928 293.188 828.327 292.95 825.664 C 291.045 824.225 285.673 819.615 283.922 819.656 C 284.481 822.112 284.803 821.727 284.032 823.639 C 281.372 822.873 282.341 823.476 280.453 821.056 C 281.004 819.405 281.573 818.842 282.843 817.676 L 281.045 815.791 L 279.761 815.801 L 278.95 819.33 L 277.036 818.956 L 275.958 816.843 C 278.058 813.891 278.364 814.537 282.437 813.023 C 285.416 812.873 291.053 817.615 294.476 819.693 L 296.751 818.863 C 307.378 826.336 317.066 834.445 327.945 841.671 C 325.093 843.572 323.455 845.395 320.6 846.803 C 314.606 841.495 316.113 841.86 307.963 838.11 z"/>
<path transform="translate(0,0)" fill="rgb(34,32,32)" fill-opacity="0.141176" d="M 697.833 841.821 L 698.249 843.163 C 708.218 837.465 735.324 819.413 745.999 811.67 C 744.394 812.834 756.383 808.043 753.543 808.674 C 749.353 817.556 749.759 816.018 740.873 821.308 L 741.579 820.349 C 735.269 825.411 731.417 830.087 725.107 834.614 L 726.047 833.524 C 723.727 834.587 718.836 836.37 717.631 838.103 L 719.174 840.326 L 717.29 841.32 L 715.651 839.071 C 706.02 838.16 678.156 860.365 667.009 859.547 C 677.814 853.899 687.397 848.109 697.833 841.821 z"/>
<path transform="translate(0,0)" fill="url(#Gradient4)" d="M 585.136 888.348 C 592.437 886.068 604.306 883.593 612.053 881.714 C 608.964 886.412 609.926 884.333 605.496 886.138 C 595.932 890.035 594.672 894.237 583.754 896.563 C 581.777 897.757 581.291 898.283 579.072 898.368 L 578.858 897.135 C 580.869 892.54 581.512 891.889 585.136 888.348 z"/>
<path transform="translate(0,0)" fill="url(#Gradient3)" d="M 612.053 881.714 L 613.225 881.037 L 613.589 882.392 C 611.234 889.65 612.113 889.898 604.62 892.247 L 601.521 892.776 C 597.573 896.392 588.88 898.362 583.754 896.563 C 594.672 894.237 595.932 890.035 605.496 886.138 C 609.926 884.333 608.964 886.412 612.053 881.714 z"/>
<path transform="translate(0,0)" fill="rgb(0,0,0)" fill-opacity="0.407843" d="M 368.742 864.156 L 376.872 867.639 C 376.812 869.211 377.069 871.805 377.235 873.415 L 377.302 874.009 C 373.823 875.857 373.866 871.589 366.951 870.306 C 365.635 870.054 364.315 869.823 362.991 869.612 L 362.357 869.52 C 362.438 866.387 365.063 870.51 368.742 864.156 z"/>
<path transform="translate(0,0)" fill="url(#Gradient2)" d="M 613.589 882.392 C 617.021 882.421 620.229 882.041 623.029 883.897 L 623.014 885.482 C 619.135 888.684 609.676 892.11 604.62 892.247 C 612.113 889.898 611.234 889.65 613.589 882.392 z"/>
<path transform="translate(0,0)" fill="url(#Gradient1)" d="M 654.163 885.33 C 652.701 879.581 653.383 878.03 658.141 876.438 C 660.193 878.349 663.274 879.371 663.858 880.769 C 660.091 884.009 659.192 885.872 654.163 885.33 z"/>
<path transform="translate(0,0)" fill="rgb(0,0,0)" fill-opacity="0.490196" d="M 648.149 871.91 L 649.772 873.086 L 649.624 878.717 C 645.261 878.789 644.151 879.618 641.283 876.181 L 641.533 874.324 C 644.396 871.889 643.913 872.596 648.149 871.91 z"/>
<path transform="translate(0,0)" fill="rgb(0,0,0)" fill-opacity="0.419608" d="M 448.406 908.199 C 444.826 907.442 443.855 907.059 440.508 905.614 C 441.888 904.718 443.109 905.102 444.814 905.282 C 452.227 905.504 458.156 906.422 465.496 907.479 C 461.216 907.549 452.264 907.452 448.406 908.199 z"/>
<path transform="translate(0,0)" fill="rgb(0,0,0)" fill-opacity="0.321569" d="M 606.16 905 C 604.435 904.087 601.507 904.664 598.646 904.339 L 599.224 903.434 C 604.288 901.535 605.681 901.187 611.049 900.539 L 611.683 901.717 L 606.74 904.4 L 606.16 905 z"/>
<path transform="translate(0,0)" fill="rgb(0,0,0)" fill-opacity="0.113725" d="M 501.575 933.132 C 506.98 929.175 508.176 930.173 514.721 931.824 C 511.847 933.671 505.624 933.058 501.575 933.132 z"/>
<path transform="translate(0,0)" fill="rgb(0,0,0)" fill-opacity="0.133333" d="M 532.279 929.797 L 531.423 930.396 L 532.048 931.83 L 531.555 932.459 C 526.667 930.761 525.861 930.229 522.242 926.527 C 524.973 927.621 527.037 928.471 530 928.744 L 532.279 929.797 z"/>
</svg>