<svg version="1.1" xmlns="http://www.w3.org/2000/svg" style="display: block;" viewBox="0 0 2048 2048" width="512" height="512" preserveAspectRatio="none">
<defs>
	<linearGradient id="Gradient1" gradientUnits="userSpaceOnUse" x1="844.812" y1="1317.02" x2="842.77" y2="481.979">
		<stop class="stop0" offset="0" stop-opacity="1" stop-color="rgb(255,219,221)"/>
		<stop class="stop1" offset="1" stop-opacity="1" stop-color="rgb(255,245,245)"/>
	</linearGradient>
	<linearGradient id="Gradient2" gradientUnits="userSpaceOnUse" x1="844.913" y1="2036.55" x2="843.266" y2="2.58452">
		<stop class="stop0" offset="0" stop-opacity="1" stop-color="rgb(254,59,131)"/>
		<stop class="stop1" offset="1" stop-opacity="1" stop-color="rgb(255,166,142)"/>
	</linearGradient>
</defs>
<path transform="translate(0,0)" fill="url(#Gradient2)" d="M 333.195 0 L 1577.94 0 C 1602.9 10.7076 1621.69 23.4543 1623.62 53.7994 C 1624.99 75.3982 1624.23 97.6291 1624.22 119.325 L 1624.14 239.927 C 1623.01 262.199 1623.86 291.61 1623.88 314.322 L 1623.89 451.343 L 1623.87 550.733 C 1623.87 561.716 1623.19 589.947 1624.14 600.13 L 1624.08 1365.52 L 1624.07 1613.76 C 1624.06 1652.27 1625.52 1702.86 1623.88 1740.57 C 1625.2 1783.04 1600.41 1807.87 1558.5 1808.18 L 1504.07 1808.11 C 1504.18 1844.34 1505.8 1892.74 1504.16 1928.06 L 1541.31 1927.8 C 1565.72 1927.67 1587.67 1926.45 1606.54 1945.21 C 1618.18 1956.73 1624.6 1972.52 1624.29 1988.89 C 1624.26 2004.83 1617.7 2020.06 1606.14 2031.05 C 1600.63 2036.3 1594.15 2040.16 1587.43 2043.7 C 1584.68 2045.15 1580.33 2046.35 1577.82 2048 L 332.935 2048 C 326.317 2045.98 322.301 2045.39 315.479 2044.31 C 296.663 2040.92 275.934 2035.91 258.168 2029.2 C 183.053 2000.71 122.337 1943.54 89.3808 1870.27 C 59.0026 1802.39 63.9477 1752.69 63.9582 1680.67 L 63.9731 1529.63 L 63.9566 1054.65 L 63.9242 539.455 L 63.914 372.421 C 63.9134 343.61 62.9009 307.064 64.5745 278.815 C 66.301 248.846 72.7217 219.335 83.6023 191.358 C 117.613 103.11 187.925 40.1999 275.045 12.5879 C 289.646 7.96024 325.154 4.13546 333.195 0 z"/>
<path transform="translate(0,0)" fill="rgb(254,200,207)" d="M 315.479 2044.31 C 311.743 2040.16 306.692 2038.45 301.514 2036.65 C 290.91 2032.97 281.474 2028.21 271.845 2022.38 C 230.374 1997.46 200.586 1957 189.114 1910 C 177.946 1863 186.09 1813.5 211.723 1772.56 C 235.934 1733.7 276.355 1704.26 320.992 1693.2 C 346.5 1686.88 378.266 1687.96 404.932 1687.95 L 481.927 1687.95 L 742.257 1687.99 L 1289.29 1687.99 L 1469.36 1687.99 C 1499.77 1687.98 1530.28 1687.71 1560.56 1688.03 C 1582.92 1688.26 1600.56 1696.02 1613.34 1714.5 C 1620.55 1724.93 1622.02 1728.23 1623.88 1740.57 C 1625.2 1783.04 1600.41 1807.87 1558.5 1808.18 L 1504.07 1808.11 C 1504.18 1844.34 1505.8 1892.74 1504.16 1928.06 L 1541.31 1927.8 C 1565.72 1927.67 1587.67 1926.45 1606.54 1945.21 C 1618.18 1956.73 1624.6 1972.52 1624.29 1988.89 C 1624.26 2004.83 1617.7 2020.06 1606.14 2031.05 C 1600.63 2036.3 1594.15 2040.16 1587.43 2043.7 C 1584.68 2045.15 1580.33 2046.35 1577.82 2048 L 332.935 2048 C 326.317 2045.98 322.301 2045.39 315.479 2044.31 z"/>
<path transform="translate(0,0)" fill="url(#Gradient1)" d="M 838.044 480.343 C 868.229 477.446 896.491 497.702 901.985 527.318 C 905.716 547.432 904.105 575.024 904.084 595.903 C 903.911 637.27 903.977 678.638 904.282 720.004 L 1027.13 719.901 C 1044.51 719.892 1082.08 718.873 1097.08 721.881 C 1107.36 723.871 1116.86 728.76 1124.46 735.973 C 1136.34 747.185 1143.3 762.644 1143.82 778.972 C 1144.08 795.078 1137.79 810.6 1126.4 821.991 C 1101.72 846.683 1071.26 838.861 1039.46 840.261 C 1034.61 840.474 1029.52 840.263 1024.65 840.262 L 903.929 840.105 L 903.993 1126.12 L 903.998 1214.53 C 903.99 1232.34 904.633 1250.17 902.803 1267.89 C 899.818 1296.81 877.168 1315.98 849.251 1319.65 C 847.835 1319.83 847.661 1319.89 846.006 1319.93 C 829.789 1320.3 814.095 1314.18 802.422 1302.91 C 778.698 1279.79 783.928 1246.68 783.916 1216 L 783.897 1135.26 L 784.026 840.092 C 728.943 840.889 673.583 839.739 618.474 840.218 C 609.598 840.295 599.666 840.038 590.983 838.117 C 544.486 827.832 528.142 770.816 562.483 736.987 C 569.861 729.586 579.215 724.466 589.426 722.241 C 605.472 718.77 644.866 719.939 663.013 719.951 L 784.002 720.036 L 783.868 596.823 C 783.849 548.285 774.401 490.392 838.044 480.343 z"/>
<path transform="translate(0,0)" fill="rgb(254,243,244)" d="M 1624.14 239.927 L 1837.85 239.763 L 1897.05 239.773 C 1923.73 239.781 1947.11 237.299 1967.61 258.191 C 1978.9 269.921 1984.93 285.739 1984.32 302.007 C 1983.85 317.887 1976.93 333.307 1965.13 344.126 C 1935.58 371.216 1901.51 348.743 1875.76 384.892 C 1869.27 394.007 1864.7 407.531 1864.21 418.787 C 1863.93 434.971 1869.28 448.291 1879.95 460.22 C 1908.01 492.061 1953.2 467.163 1976.11 509.303 C 1990.26 535.341 1986.4 563.975 1964.66 584.329 C 1944.65 603.07 1921.6 600.214 1896.37 600.184 L 1839.28 600.104 C 1767.96 600.014 1695.37 599.407 1624.14 600.13 C 1623.19 589.947 1623.87 561.716 1623.87 550.733 L 1623.89 451.343 L 1623.88 314.322 C 1623.86 291.61 1623.01 262.199 1624.14 239.927 z"/>
</svg>