<?xml version="1.0" encoding="UTF-8"?>
<svg version="1.1" xmlns="http://www.w3.org/2000/svg" width="256" height="256">
<path d="M0 0 C1.20952835 -0.00511093 2.4190567 -0.01022186 3.66523743 -0.01548767 C6.95471716 -0.02693555 10.24403911 -0.02946852 13.53353333 -0.02692437 C16.29401862 -0.02584697 19.05448123 -0.03075763 21.81496161 -0.03552979 C28.33596857 -0.04658785 34.85691791 -0.04708367 41.37792969 -0.04101562 C48.07171256 -0.03498188 54.76528491 -0.04728003 61.45903188 -0.06858569 C67.2360478 -0.08628721 73.01299725 -0.09218958 78.79003924 -0.08894795 C82.2271226 -0.08714813 85.66405585 -0.08963914 89.10111427 -0.10366249 C92.94126923 -0.1160902 96.78094563 -0.10919664 100.62109375 -0.09765625 C101.73683777 -0.10529999 102.85258179 -0.11294373 104.00213623 -0.12081909 C118.64009241 -0.02428377 130.40325744 3.41638747 141.25463867 13.3996582 C151.94645563 24.65918225 153.81219537 37.87301884 153.77929688 52.77001953 C153.78440781 53.97954788 153.78951874 55.18907623 153.79478455 56.43525696 C153.80623243 59.72473669 153.80876539 63.01405864 153.80622125 66.30355287 C153.80514385 69.06403815 153.81005451 71.82450077 153.81482667 74.58498114 C153.82588472 81.1059881 153.82638054 87.62693744 153.8203125 94.14794922 C153.81427876 100.84173209 153.8265769 107.53530444 153.84788257 114.22905141 C153.86558408 120.00606734 153.87148645 125.78301678 153.86824483 131.56005877 C153.86644501 134.99714213 153.86893601 138.43407538 153.88295937 141.8711338 C153.89538708 145.71128876 153.88849351 149.55096516 153.87695312 153.39111328 C153.88459686 154.5068573 153.8922406 155.62260132 153.90011597 156.77215576 C153.80358065 171.41011194 150.36290941 183.17327697 140.37963867 194.0246582 C129.12011462 204.71647516 115.90627804 206.5822149 101.00927734 206.54931641 C99.19498482 206.5569828 99.19498482 206.5569828 97.34403992 206.56480408 C94.05456018 206.57625196 90.76523824 206.57878492 87.47574401 206.57624078 C84.71525872 206.57516338 81.95479611 206.58007404 79.19431573 206.5848462 C72.67330877 206.59590425 66.15235943 206.59640007 59.63134766 206.59033203 C52.93756479 206.58429829 46.24399244 206.59659643 39.55024546 206.6179021 C33.77322954 206.63560362 27.9962801 206.64150599 22.2192381 206.63826436 C18.78215474 206.63646454 15.3452215 206.63895554 11.90816307 206.6529789 C8.06800811 206.66540661 4.22833171 206.65851305 0.38818359 206.64697266 C-1.28543243 206.65843826 -1.28543243 206.65843826 -2.99285889 206.6701355 C-17.63081506 206.57360018 -29.3939801 203.13292894 -40.24536133 193.1496582 C-50.93717828 181.89013416 -52.80291803 168.67629757 -52.77001953 153.77929688 C-52.77513046 152.56976852 -52.78024139 151.36024017 -52.7855072 150.11405945 C-52.79695508 146.82457971 -52.79948805 143.53525777 -52.7969439 140.24576354 C-52.7958665 137.48527825 -52.80077717 134.72481564 -52.80554932 131.96433526 C-52.81660738 125.4433283 -52.8171032 118.92237896 -52.81103516 112.40136719 C-52.80500141 105.70758432 -52.81729956 99.01401197 -52.83860523 92.320265 C-52.85630674 86.54324907 -52.86220911 80.76629963 -52.85896748 74.98925763 C-52.85716766 71.55217427 -52.85965867 68.11524103 -52.87368202 64.6781826 C-52.88610973 60.83802765 -52.87921617 56.99835124 -52.86767578 53.15820312 C-52.87531952 52.04245911 -52.88296326 50.92671509 -52.89083862 49.77716064 C-52.7943033 35.13920447 -49.35363206 23.37603944 -39.37036133 12.5246582 C-28.11083728 1.83284125 -14.8970007 -0.0328985 0 0 Z " fill="#FEFEFE" transform="translate(77.495361328125,24.725341796875)"/>
<path d="M0 0 C0.61875 0.33 1.2375 0.66 1.875 1 C1.875 1.33 1.875 1.66 1.875 2 C0.73224609 1.93039063 0.73224609 1.93039063 -0.43359375 1.859375 C-9.84210136 1.53048834 -15.96865256 3.18945517 -23.25 9.1875 C-31.13917894 16.57478286 -38.54182619 25.70285077 -39.4296875 36.8125 C-39.43656654 40.22450366 -39.3486231 43.59595955 -39.125 47 C-40.445 46.34 -41.765 45.68 -43.125 45 C-43.22167969 45.66773438 -43.31835938 46.33546875 -43.41796875 47.0234375 C-44.1338077 50.03707995 -45.23611091 52.69705126 -46.49975586 55.51806641 C-54.62228386 73.76784944 -58.68507272 93.33737369 -51.63671875 112.5234375 C-49.55545813 117.30979914 -47.07135678 121.69690161 -44.125 126 C-44.75728516 124.37191406 -44.75728516 124.37191406 -45.40234375 122.7109375 C-45.95602409 121.26573796 -46.50939305 119.82041909 -47.0625 118.375 C-47.34029297 117.66214844 -47.61808594 116.94929688 -47.90429688 116.21484375 C-56.00786143 94.93078264 -49.46784393 72.98324604 -41.03881836 52.93847656 C-40.125 51 -40.125 51 -38.125 48 C-34.825 48.33 -31.525 48.66 -28.125 49 C-29.094375 48.525625 -30.06375 48.05125 -31.0625 47.5625 C-34.125 46 -34.125 46 -35.125 45 C-36.07228923 39.58691866 -33.97021316 36.60739849 -30.98828125 32.3515625 C-29.06449937 29.92364491 -26.98018922 27.77315243 -24.8125 25.5625 C-21.04095686 21.49697726 -20.21940641 18.45362239 -20.16015625 12.96875 C-20.125 11 -20.125 11 -19.125 10 C-12.405 10.72 -12.405 10.72 -11.125 12 C-8.67595331 12.10044341 -6.26125103 12.13874416 -3.8125 12.125 C-2.79639648 12.13080078 -2.79639648 12.13080078 -1.75976562 12.13671875 C1.62618279 12.1300991 4.6204082 11.90444892 7.875 11 C9.29034778 10.93543121 10.70837689 10.91388961 12.125 10.9375 C13.98125 10.9684375 13.98125 10.9684375 15.875 11 C21.08086453 25.3681861 22.3528038 36.36706001 16.03125 50.6640625 C14.875 53 14.875 53 13.875 54 C13.34012672 60.63242862 14.42450432 65.36489782 16.90234375 71.51953125 C17.74829923 73.6768876 18.37495746 75.74191314 18.875 78 C19.57625 78.14695312 20.2775 78.29390625 21 78.4453125 C31.37279459 80.89757644 38.81879786 86.15334523 44.875 95 C49.14801049 103.18048321 50.30914765 111.60807039 48.28515625 120.62890625 C45.28447868 129.46500287 38.19370297 137.75576379 29.875 142 C19.78449393 146.03268044 10.90913055 146.1736793 0.875 142 C0.215 141.67 -0.445 141.34 -1.125 141 C-3.20064676 140.80241769 -3.20064676 140.80241769 -5.5 140.8125 C-6.27085937 140.79832031 -7.04171875 140.78414062 -7.8359375 140.76953125 C-10.13410327 140.85253346 -10.13410327 140.85253346 -11.96264648 141.9934082 C-15.99536252 143.8706678 -20.43504201 143.36921354 -24.8125 143.375 C-25.76833984 143.39949219 -26.72417969 143.42398438 -27.70898438 143.44921875 C-40.47958541 143.50145025 -50.80755345 136.54596617 -60.03515625 128.140625 C-82.60692889 105.02037938 -98.09707782 68.12292755 -98.5625 36.0625 C-98.58489746 35.10335693 -98.60729492 34.14421387 -98.63037109 33.15600586 C-98.60205504 24.58443757 -96.19601052 17.25498053 -90.125 11 C-84.43595951 6.91224538 -78.88911904 7.27205974 -72.125 8 C-66.50457906 9.58662601 -62.01876839 12.85063267 -59.125 18 C-55.12263263 27.98079896 -54.93302487 38.39448488 -54.5625 49 C-54.51931641 50.15628906 -54.47613281 51.31257813 -54.43164062 52.50390625 C-54.32632083 55.33583854 -54.22418913 58.16784747 -54.125 61 C-53.29355469 59.33710937 -53.29355469 59.33710937 -52.4453125 57.640625 C-46.125 45 -46.125 45 -45.0222168 42.90258789 C-43.06687926 38.75620818 -43.37215497 33.26288681 -44.80078125 28.96875 C-45.56864112 27.30929928 -46.34643324 25.65445437 -47.125 24 C-47.375 21.125 -47.375 21.125 -47.125 19 C-46.125 18 -46.125 18 -43.62109375 17.90234375 C-42.61175781 17.91394531 -41.60242188 17.92554687 -40.5625 17.9375 C-39.55058594 17.94652344 -38.53867188 17.95554687 -37.49609375 17.96484375 C-36.71363281 17.97644531 -35.93117187 17.98804687 -35.125 18 C-34.8671875 17.41992188 -34.609375 16.83984375 -34.34375 16.2421875 C-27.95630605 4.49092843 -13.12285308 -4.19931298 0 0 Z " fill="#8A7363" transform="translate(153.125,56)"/>
<path d="M0 0 C0.61875 0.33 1.2375 0.66 1.875 1 C1.875 1.33 1.875 1.66 1.875 2 C0.73224609 1.93039063 0.73224609 1.93039063 -0.43359375 1.859375 C-9.84210136 1.53048834 -15.96865256 3.18945517 -23.25 9.1875 C-31.13917894 16.57478286 -38.54182619 25.70285077 -39.4296875 36.8125 C-39.43656654 40.22450366 -39.3486231 43.59595955 -39.125 47 C-40.445 46.34 -41.765 45.68 -43.125 45 C-43.22167969 45.66773438 -43.31835938 46.33546875 -43.41796875 47.0234375 C-44.1338077 50.03707995 -45.23611091 52.69705126 -46.49975586 55.51806641 C-54.61989189 73.76247513 -58.69951473 93.35398711 -51.62890625 112.53125 C-49.19791484 118.1383159 -46.48002326 123.64497674 -42.125 128 C-42.3415625 127.09121094 -42.558125 126.18242187 -42.78125 125.24609375 C-44.89647331 115.69821074 -47.3021822 104.5315466 -44.125 95 C-43.465 95 -42.805 95 -42.125 95 C-40.8984375 96.72265625 -40.8984375 96.72265625 -39.5 99.0625 C-35.48989813 105.28845278 -29.93857527 110.86943839 -23.125 114 C-21.45885854 114.04183812 -19.79100472 114.04696862 -18.125 114 C-17.90585938 114.76183594 -17.68671875 115.52367187 -17.4609375 116.30859375 C-14.74032969 125.16715821 -11.17639212 132.76223004 -4.125 139 C-5.48625 139.433125 -5.48625 139.433125 -6.875 139.875 C-9.96490855 140.84085508 -9.96490855 140.84085508 -12.02270508 142.04931641 C-16.03708751 143.86466946 -20.47537683 143.36926686 -24.8125 143.375 C-25.76833984 143.39949219 -26.72417969 143.42398438 -27.70898438 143.44921875 C-40.47958541 143.50145025 -50.80755345 136.54596617 -60.03515625 128.140625 C-82.60692889 105.02037938 -98.09707782 68.12292755 -98.5625 36.0625 C-98.58489746 35.10335693 -98.60729492 34.14421387 -98.63037109 33.15600586 C-98.60205504 24.58443757 -96.19601052 17.25498053 -90.125 11 C-84.43595951 6.91224538 -78.88911904 7.27205974 -72.125 8 C-66.50457906 9.58662601 -62.01876839 12.85063267 -59.125 18 C-55.12263263 27.98079896 -54.93302487 38.39448488 -54.5625 49 C-54.51931641 50.15628906 -54.47613281 51.31257813 -54.43164062 52.50390625 C-54.32632083 55.33583854 -54.22418913 58.16784747 -54.125 61 C-53.29355469 59.33710937 -53.29355469 59.33710937 -52.4453125 57.640625 C-46.125 45 -46.125 45 -45.0222168 42.90258789 C-43.06687926 38.75620818 -43.37215497 33.26288681 -44.80078125 28.96875 C-45.56864112 27.30929928 -46.34643324 25.65445437 -47.125 24 C-47.375 21.125 -47.375 21.125 -47.125 19 C-46.125 18 -46.125 18 -43.62109375 17.90234375 C-42.61175781 17.91394531 -41.60242188 17.92554687 -40.5625 17.9375 C-39.55058594 17.94652344 -38.53867188 17.95554687 -37.49609375 17.96484375 C-36.71363281 17.97644531 -35.93117187 17.98804687 -35.125 18 C-34.8671875 17.41992188 -34.609375 16.83984375 -34.34375 16.2421875 C-27.95630605 4.49092843 -13.12285308 -4.19931298 0 0 Z " fill="#392A25" transform="translate(153.125,56)"/>
<path d="M0 0 C8.57326275 6.07410701 14.43699223 13.3910789 16.7734375 23.74609375 C17.94707391 33.09888701 16.46326097 40.90101246 10.71484375 48.44921875 C3.50290148 56.76788403 -3.68244623 61.7778478 -14.77734375 63.03515625 C-19.94722499 63.21204177 -24.09230543 62.36541976 -28.91015625 60.546875 C-32.91179954 59.16350759 -37.06552 58.48448334 -41.2265625 57.74609375 C-40.2365625 57.08609375 -39.2465625 56.42609375 -38.2265625 55.74609375 C-38.68546875 55.27300781 -39.144375 54.79992187 -39.6171875 54.3125 C-47.48974058 45.82800477 -50.62987359 37.41517285 -50.50390625 25.91015625 C-49.79588116 17.83268689 -45.83440549 10.52801612 -40.2265625 4.74609375 C-28.37449372 -4.95105343 -13.88131324 -7.81737114 0 0 Z " fill="#58B8BF" transform="translate(185.2265625,138.25390625)"/>
<path d="M0 0 C0.33 0 0.66 0 1 0 C1.495 4.455 1.495 4.455 2 9 C2.66 9 3.32 9 4 9 C4.28875 8.236875 4.5775 7.47375 4.875 6.6875 C6 4 6 4 8 1 C8.66932931 9.03195166 6.55469896 14.82067358 3 22 C2.505 22.495 2.505 22.495 2 23 C1.46202677 29.67086802 2.56335035 34.35556178 5.125 40.51953125 C6 43 6 43 6 47 C5.24976563 47.08636719 4.49953125 47.17273438 3.7265625 47.26171875 C-6.14348797 48.6166753 -14.9643947 51.64459446 -22 59 C-25.67099901 64.68298885 -28.53039269 70.3867671 -30 77 C-30.33 77 -30.66 77 -31 77 C-31.72412277 74.63247804 -32.43690858 72.26273356 -33.1328125 69.88671875 C-33.67374091 68.08606065 -34.24670088 66.29434659 -34.8671875 64.51953125 C-38.46198841 53.47835703 -39.14870262 41.68544745 -34.13208008 31.06884766 C-33.39642237 29.64322329 -32.63564456 28.23018726 -31.84643555 26.83349609 C-28.66260834 21.12373338 -28.30853394 17.00062505 -29.4375 10.46875 C-29.623125 9.8190625 -29.80875 9.169375 -30 8.5 C-30.33 7.345 -30.66 6.19 -31 5 C-29.89591797 5.72316406 -29.89591797 5.72316406 -28.76953125 6.4609375 C-27.79371094 7.09257813 -26.81789062 7.72421875 -25.8125 8.375 C-24.36810547 9.31472656 -24.36810547 9.31472656 -22.89453125 10.2734375 C-18.73838241 12.75254383 -15.24506162 14.29132197 -10.375 14.375 C-9.24191406 14.41753906 -9.24191406 14.41753906 -8.0859375 14.4609375 C-5.86266266 14.16827259 -5.86266266 14.16827259 -4.33203125 12.3046875 C-2.8916957 9.81261133 -2.07830512 7.5214852 -1.3125 4.75 C-0.93544922 3.41195312 -0.93544922 3.41195312 -0.55078125 2.046875 C-0.36902344 1.37140625 -0.18726563 0.6959375 0 0 Z " fill="#392B26" transform="translate(165,87)"/>
<path d="M0 0 C1.98 0.66 3.96 1.32 6 2 C5.20335937 3.70542969 5.20335937 3.70542969 4.390625 5.4453125 C-5.05058795 25.96338224 -11.93475946 48.74961202 -4 71 C-2.95864785 73.46236394 -1.87790238 75.87197573 -0.671875 78.2578125 C-0.45015625 78.83273438 -0.2284375 79.40765625 0 80 C-0.495 80.99 -0.495 80.99 -1 82 C-11.06802015 68.1061322 -14.90275663 53.63245519 -12.41796875 36.57421875 C-10.18727173 23.66882708 -5.29194493 11.9204278 0 0 Z " fill="#F5F4F3" transform="translate(110,101)"/>
<path d="M0 0 C0.928125 0.495 0.928125 0.495 1.875 1 C1.875 1.33 1.875 1.66 1.875 2 C0.73224609 1.93039063 0.73224609 1.93039063 -0.43359375 1.859375 C-9.84210136 1.53048834 -15.96865256 3.18945517 -23.25 9.1875 C-31.13917894 16.57478286 -38.54182619 25.70285077 -39.4296875 36.8125 C-39.43656654 40.22450366 -39.3486231 43.59595955 -39.125 47 C-40.445 46.34 -41.765 45.68 -43.125 45 C-43.455 45.99 -43.785 46.98 -44.125 48 C-45.115 48 -46.105 48 -47.125 48 C-45.25 43.25 -45.25 43.25 -44.125 41 C-43.50027659 34.42839029 -44.34744787 29.90229828 -47.125 24 C-47.375 21.125 -47.375 21.125 -47.125 19 C-46.125 18 -46.125 18 -43.62109375 17.90234375 C-42.61175781 17.91394531 -41.60242188 17.92554687 -40.5625 17.9375 C-39.55058594 17.94652344 -38.53867188 17.95554687 -37.49609375 17.96484375 C-36.32240234 17.98224609 -36.32240234 17.98224609 -35.125 18 C-34.8671875 17.41992188 -34.609375 16.83984375 -34.34375 16.2421875 C-27.95630605 4.49092843 -13.12285308 -4.19931298 0 0 Z " fill="#463833" transform="translate(153.125,56)"/>
<path d="M0 0 C1.051875 -0.01675781 2.10375 -0.03351563 3.1875 -0.05078125 C6 0.3125 6 0.3125 7.86328125 1.6328125 C9.56478773 4.14706605 9.1967012 6.36198194 9 9.3125 C7.68 9.3125 6.36 9.3125 5 9.3125 C4.67 7.9925 4.34 6.6725 4 5.3125 C1.36 5.3125 -1.28 5.3125 -4 5.3125 C-4 11.2525 -4 17.1925 -4 23.3125 C-1.36 23.3125 1.28 23.3125 4 23.3125 C4.33 21.9925 4.66 20.6725 5 19.3125 C6.32 19.3125 7.64 19.3125 9 19.3125 C9.36420526 24.77557885 9.36420526 24.77557885 7.86328125 26.98828125 C5.21625613 28.86950036 3.21672125 28.71115236 0 28.6875 C-1.051875 28.69523437 -2.10375 28.70296875 -3.1875 28.7109375 C-6 28.3125 -6 28.3125 -7.65087891 27.1159668 C-9.47151993 24.68218554 -9.38750629 23.07951205 -9.3984375 20.05859375 C-9.40230469 19.03958984 -9.40617188 18.02058594 -9.41015625 16.97070312 C-9.39275391 15.37645508 -9.39275391 15.37645508 -9.375 13.75 C-9.38660156 12.68330078 -9.39820313 11.61660156 -9.41015625 10.51757812 C-9.40628906 9.49986328 -9.40242187 8.48214844 -9.3984375 7.43359375 C-9.39505371 6.4995874 -9.39166992 5.56558105 -9.38818359 4.60327148 C-9.26008301 3.84731689 -9.13198242 3.0913623 -9 2.3125 C-5.55324591 0.01466394 -4.06671888 0.01495117 0 0 Z " fill="#F5FAFB" transform="translate(158,153.6875)"/>
<path d="M0 0 C4.95 0 9.9 0 15 0 C15 0.99 15 1.98 15 3 C11.37 3 7.74 3 4 3 C4 5.97 4 8.94 4 12 C7.3 12 10.6 12 14 12 C14 13.32 14 14.64 14 16 C10.7 16 7.4 16 4 16 C4 18.64 4 21.28 4 24 C7.63 24 11.26 24 15 24 C15.33 25.32 15.66 26.64 16 28 C10.72 28 5.44 28 0 28 C0 18.76 0 9.52 0 0 Z " fill="#F7FBFC" transform="translate(173,154)"/>
<path d="M0 0 C0.33 0.33 0.66 0.66 1 1 C0.84634321 5.53287544 0.52307949 8.84961619 -2.1875 12.5625 C-5 15 -5 15 -7.9375 15.125 C-11.48681784 13.82116896 -14.09455219 12.43246793 -17 10 C-17.875 7.25 -17.875 7.25 -18 5 C-11.52807659 0.44023578 -7.74410944 -0.25390523 0 0 Z " fill="#3D2E29" transform="translate(169,67)"/>
<path d="M0 0 C1 2 1 2 0.36328125 4.3125 C0.01652344 5.199375 -0.33023438 6.08625 -0.6875 7 C-1.02136719 7.886875 -1.35523438 8.77375 -1.69921875 9.6875 C-3.20811434 12.36998105 -4.10442619 13.05450651 -7 14 C-8.32 14 -9.64 14 -11 14 C-12.4783226 11.04335481 -12.06032783 8.25770263 -12 5 C-11.30132812 4.80664062 -10.60265625 4.61328125 -9.8828125 4.4140625 C-8.97273437 4.15367188 -8.06265625 3.89328125 -7.125 3.625 C-6.22007812 3.36976562 -5.31515625 3.11453125 -4.3828125 2.8515625 C-1.85430274 2.1395685 -1.85430274 2.1395685 0 0 Z " fill="#F1F1F0" transform="translate(166,100)"/>
<path d="M0 0 C3.4375 0.1875 3.4375 0.1875 7 1 C7.66 2.32 8.32 3.64 9 5 C6.03 6.65 3.06 8.3 0 10 C-0.87890625 3.06640625 -0.87890625 3.06640625 -1 1 C-0.67 0.67 -0.34 0.34 0 0 Z " fill="#453631" transform="translate(134,66)"/>
<path d="M0 0 C1 2 1 2 0.22265625 4.3828125 C-0.16019531 5.28773437 -0.54304687 6.19265625 -0.9375 7.125 C-1.31777344 8.03507812 -1.69804687 8.94515625 -2.08984375 9.8828125 C-2.39019531 10.58148438 -2.69054687 11.28015625 -3 12 C-3.99 11.67 -4.98 11.34 -6 11 C-4.34703566 6.90694544 -2.86453858 3.41016497 0 0 Z " fill="#D4D1D0" transform="translate(166,100)"/>
<path d="M0 0 C0.33 0 0.66 0 1 0 C1.33 2.97 1.66 5.94 2 9 C0.68 8.34 -0.64 7.68 -2 7 C-2.33 7.99 -2.66 8.98 -3 10 C-3.99 10 -4.98 10 -6 10 C-4.75023244 6.34683329 -4.32901247 5.21934164 -1 3 C-0.67 2.01 -0.34 1.02 0 0 Z " fill="#5C4F4B" transform="translate(112,94)"/>
<path d="M0 0 C0.33 0 0.66 0 1 0 C1.33 3.63 1.66 7.26 2 11 C0.68 10.67 -0.64 10.34 -2 10 C-1.34 6.7 -0.68 3.4 0 0 Z " fill="#41312B" transform="translate(165,87)"/>
</svg>
